P3
# Fichier image genere par votre programme
4 4
255
255 255 255 255 255 255 0 0 255 0 0 255 
255 255 255 0 0 255 102 204 255 102 204 255 
0 0 255 102 204 255 102 204 255 0 255 0 
102 204 255 102 204 255 0 255 0 0 255 0 
